<svg xmlns="http://www.w3.org/2000/svg" xmlns:xlink="http://www.w3.org/1999/xlink"
    style="display: none;">
    <symbol
        id="Home" viewBox="0 0 122.88 112.07" stroke="currentColor" stroke-width="1.5">
        <path
            fill-rule="evenodd"
            clip-rule="evenodd"
            d="M61.44,0L0,60.18l14.99,7.87L61.04,19.7l46.85,48.36l14.99-7.87L61.44,0L61.44,0z M18.26,69.63L18.26,69.63 L61.5,26.38l43.11,43.25h0v0v42.43H73.12V82.09H49.49v29.97H18.26V69.63L18.26,69.63L18.26,69.63z"
        />
    </symbol>

    <symbol
        id="SearchUser" viewBox="0 0 121.699 122.879" stroke="currentColor">
        <path
            fill-rule="evenodd"
            clip-rule="evenodd"
            d="M53.613,0c14.79,0,28.202,6.018,37.918,15.694c9.715,9.716,15.693,23.089,15.693,37.918 c0,10.817-3.225,20.926-8.732,29.343l23.207,25.292l-16.008,14.632L83.311,98.256c-8.498,5.664-18.725,8.969-29.698,8.969 c-14.79,0-28.203-6.019-37.918-15.694C5.979,81.814,0,68.44,0,53.612c0-14.79,6.018-28.202,15.695-37.918 C25.41,5.979,38.784,0,53.613,0L53.613,0z M37.534,33.9c7.813-8.622,16.834-13.305,23.597-5.639 c1.773,0.084,3.359,0.671,4.684,1.921c2.781,2.615,3.213,7.508,1.941,11.394v3.392c0.861,0.567,1.418,1.628,1.67,2.835 c0.168,0.777,0.211,1.638,0.125,2.457c-0.082,0.851-0.293,1.659-0.629,2.332c-0.482,0.956-1.219,1.627-2.215,1.774 c-0.979,1.04-1.934,2.153-2.783,3.224c-0.936,1.176-1.734,2.289-2.289,3.203c-0.432,0.704-0.295,1.166-0.137,1.691 c0.072,0.262,0.156,0.535,0.209,0.829c1.713,0.367,3.256,0.661,4.643,0.924c8.811,1.648,14.01,2.163,14.01,13.631 c0,0.588-0.473,1.061-1.061,1.061H30.697c-0.588,0-1.061-0.473-1.061-1.061c0-11.468,5.189-11.982,14.01-13.631 c1.397-0.263,2.961-0.557,4.673-0.924c0.063-0.231,0.137-0.441,0.21-0.651c0.178-0.504,0.357-1.008-0.168-1.858 c-0.557-0.914-1.355-2.026-2.289-3.203c-0.851-1.071-1.807-2.184-2.783-3.224c-0.998-0.146-1.733-0.819-2.216-1.774 c-0.336-0.662-0.546-1.481-0.63-2.331c-0.074-0.819-0.032-1.68,0.126-2.458c0.252-1.208,0.798-2.258,1.648-2.825l-1.145-0.683 c-0.304-3.392,0.588-9.283-3.55-10.396L37.534,33.9L37.534,33.9z M87.283,19.942C78.668,11.328,66.75,5.979,53.613,5.979 c-13.138,0-25.056,5.35-33.67,13.963c-8.614,8.614-13.964,20.532-13.964,33.67c0,13.138,5.35,25.056,13.964,33.67 c8.614,8.614,20.532,13.964,33.67,13.964c13.137,0,25.055-5.35,33.67-13.964c8.613-8.614,13.963-20.532,13.963-33.67 C101.246,40.474,95.896,28.556,87.283,19.942L87.283,19.942L87.283,19.942z"
        />
    </symbol>

    <symbol
        id="FourBox" viewBox="0 0 24 24" fill="none" stroke="currentColor" stroke-width="3">
        <path
            stroke-linecap="round"
            stroke-linejoin="round"
            d="M3.75 6A2.25 2.25 0 016 3.75h2.25A2.25 2.25 0 0110.5 6v2.25a2.25 2.25 0 01-2.25 2.25H6a2.25 2.25 0 01-2.25-2.25V6zM3.75 15.75A2.25 2.25 0 016 13.5h2.25a2.25 2.25 0 012.25 2.25V18a2.25 2.25 0 01-2.25 2.25H6A2.25 2.25 0 013.75 18v-2.25zM13.5 6a2.25 2.25 0 012.25-2.25H18A2.25 2.25 0 0120.25 6v2.25A2.25 2.25 0 0118 10.5h-2.25a2.25 2.25 0 01-2.25-2.25V6zM13.5 15.75a2.25 2.25 0 012.25-2.25H18a2.25 2.25 0 012.25 2.25V18A2.25 2.25 0 0118 20.25h-2.25A2.25 2.25 0 0113.5 18v-2.25z"
        />
    </symbol>

    <symbol
        id="Dollar" viewBox="0 0 72.23 122.88">
        <path
            fill-rule="evenodd"
            clip-rule="evenodd"
            d="M23.71,111.63a32.57,32.57,0,0,1-3.49-.43l-6.12-.88-3.78-.63c-1.22-.22-2.45-.46-3.66-.73s-2.47-.58-3.53-.86l-1.44-.39V84.06l6.69.55,4.91.29,5.15.23,5.22.16,5.07.1,4.72,0c1.43,0,2.68,0,3.76-.14a22.78,22.78,0,0,0,3-.45,9.46,9.46,0,0,0,2.09-.71,4.65,4.65,0,0,0,1.26-.86,2.7,2.7,0,0,0,.63-1,4.47,4.47,0,0,0,.24-1.55V79.15a3.09,3.09,0,0,0-1.2-2.72,5.5,5.5,0,0,0-1.63-.8,7,7,0,0,0-2-.27h-6.9a49.84,49.84,0,0,1-13.82-1.75A27.5,27.5,0,0,1,8.5,68.25a22,22,0,0,1-6.43-9.72A42.4,42.4,0,0,1,0,44.51V40.22A35.58,35.58,0,0,1,2.29,27a23.85,23.85,0,0,1,7-9.67,32.26,32.26,0,0,1,6.92-4.57,28.29,28.29,0,0,1,7.49-2.25V0H45.52V10.07a91.3,91.3,0,0,1,9.93,1.43l1.84.32c1.53.27,3.05.56,4.56.88s2.78.59,4.08.9l1.48.36V37.64l-2.1-.18c-2.08-.18-4.19-.34-6.31-.47-2.31-.15-4.67-.27-7.08-.38s-4.9-.19-7.09-.24c-2,0-4.17-.07-6.44-.07-1.19,0-2.29,0-3.29.12a26.91,26.91,0,0,0-2.88.36,8.23,8.23,0,0,0-2,.63,4.82,4.82,0,0,0-1.34.92,3,3,0,0,0-.71,1.18,6.19,6.19,0,0,0-.29,2v1.3a5.49,5.49,0,0,0,.36,2.12,3.47,3.47,0,0,0,1,1.33,4.92,4.92,0,0,0,1.91.9,13.07,13.07,0,0,0,3.25.35H43a39.54,39.54,0,0,1,8.77.92,26.84,26.84,0,0,1,7.35,2.79A24.48,24.48,0,0,1,69,61.4a28.62,28.62,0,0,1,2.46,6.79,34.51,34.51,0,0,1,.82,7.57v4.3A51.37,51.37,0,0,1,71.1,91.38,26.08,26.08,0,0,1,67.61,100a22.65,22.65,0,0,1-5.7,6,24.53,24.53,0,0,1-7.62,3.63l-.73.2a43,43,0,0,1-8,1.74v11.35H23.71V111.63Z"
        />
    </symbol>

    <symbol
        id="ProjectWork" viewBox="0 0 122.88 93.63">
        <path
            fill-rule="evenodd"
            clip-rule="evenodd"
            class="st0"
            d="M115.64,35.41l3,3c0.79,0.79,0.79,2.08,0,2.87l-2.42,2.42c0.67,1.24,1.17,2.59,1.5,4h3.13
            c1.12,0,2.03,0.91,2.03,2.03v4.24c0,1.12-0.91,2.03-2.03,2.03h-3.42c-0.42,1.38-1.02,2.69-1.77,3.88l2.22,2.21
            c0.79,0.79,0.79,2.08,0,2.87l-3,3c-0.79,0.79-2.08,0.79-2.87,0l-2.42-2.42c-1.24,0.67-2.58,1.18-4,1.5v3.13
            c0,1.12-0.91,2.03-2.03,2.03h-4.24c-1.12,0-2.03-0.91-2.03-2.03v-3.42c-1.38-0.42-2.69-1.02-3.88-1.77l-2.21,2.22
            c-0.79,0.79-2.08,0.79-2.87,0l-3-3c-0.79-0.79-0.79-2.08,0-2.87l2.42-2.42c-0.67-1.24-1.18-2.59-1.5-4h-3.13
            c-1.12,0-2.03-0.91-2.03-2.03v-4.24c0-1.12,0.91-2.03,2.03-2.03h3.42c0.42-1.38,1.02-2.69,1.77-3.88l-2.21-2.21
            c-0.79-0.79-0.79-2.08,0-2.87l3-3c0.79-0.79,2.08-0.79,2.87,0l2.42,2.42c1.24-0.67,2.59-1.18,4-1.5v-3.13
            c0-1.12,0.91-2.03,2.03-2.03h4.24c1.12,0,2.03,0.91,2.03,2.03v3.41c1.38,0.42,2.69,1.02,3.88,1.77l2.21-2.21
            C113.56,34.62,114.85,34.62,115.64,35.41L115.64,35.41L115.64,35.41z M3.5,70.32c2.93-3.08,4.12-3.47,8.06-4.19
            c0-21.21,0-41.9,0-63.1c-9.2,0.9-8.13,9.41-8.08,17.32c0.01,1.06,0.02,1.62,0.02,1.88V70.32L3.5,70.32z M29.17,26.62h16.4h1.27
            v1.27v51.22v1.27h-1.27h-16.4H27.9v-1.27V27.89v-1.27H29.17L29.17,26.62L29.17,26.62z M32.48,72.19h3.41v1.78h-3.41V72.19
            L32.48,72.19L32.48,72.19z M32.48,67.23h3.41v1.78h-3.41V67.23L32.48,67.23L32.48,67.23z M32.48,62.21h3.41v1.78h-3.41V62.21
            L32.48,62.21L32.48,62.21z M32.48,57.2h5.66v1.78h-5.66V57.2L32.48,57.2L32.48,57.2z M32.48,52.19h3.41v1.78h-3.41V52.19
            L32.48,52.19L32.48,52.19z M32.48,47.17h3.41v1.78h-3.41V47.17L32.48,47.17L32.48,47.17z M32.48,42.16h3.41v1.78h-3.41V42.16
            L32.48,42.16L32.48,42.16z M32.48,37.15h3.41v1.78h-3.41V37.15L32.48,37.15L32.48,37.15z M32.48,32.18h5.66v1.78h-5.66V32.18
            L32.48,32.18L32.48,32.18z M44.29,29.15H30.44v48.68h13.85V29.15L44.29,29.15L44.29,29.15z M70.49,38.22v41.8h-11.7v-41.8h-0.05
            l0.4-0.81l4.83-9.93l0.49-1.01l0.51,1l5.15,9.93l0.43,0.83H70.49L70.49,38.22L70.49,38.22z M60.55,37.08h8.15l-3.24-6.24h-1.87
            L60.55,37.08L60.55,37.08L60.55,37.08z M15.02,12.09h86.23c0.67,0,1.27,0.27,1.7,0.71c0.44,0.44,0.71,1.04,0.71,1.7v6.99h-4.47
            v-5.45H15.02v51.82h-0.01c0,0.72-0.52,1.34-1.25,1.45c-13.14,2.03-13.72,17.6-0.39,19.83h85.82v-6.54h4.47v8.6
            c0,0.66-0.27,1.26-0.71,1.7l-0.01,0.01l0,0c-0.44,0.44-1.04,0.71-1.7,0.71H13.27c-3.6,0-8.6-2.82-10.68-5.8
            c-2.04-2.9-2.77-6.63-2.56-10.97V22.23c0-1.51,0-1.67,0-1.87C-0.03,10.69-0.1,0.24,13.37,0.01C13.43,0,13.48,0,13.54,0
            c0.82,0,1.48,0.66,1.48,1.48V12.09L15.02,12.09L15.02,12.09z M101.98,42.97c4.61,0,8.34,3.74,8.34,8.34s-3.74,8.34-8.34,8.34
            c-4.61,0-8.34-3.74-8.34-8.34S97.37,42.97,101.98,42.97L101.98,42.97L101.98,42.97z"
        />
    </symbol>

    <symbol id="Lens" viewBox="0 0 24 24" stroke="currentColor" aria-hidden="true">
        <path
            stroke-linecap="round"
            stroke-linejoin="round"
            d="M21 21l-5.197-5.197m0 0A7.5 7.5 0 105.196 5.196a7.5 7.5 0 0010.607 10.607z"
        />
    </symbol>

    <symbol id="AddMember" viewBox="0 0 24 24"
        fill="currentColor" aria-hidden="true" stroke-width="2">
        <path
            d="M6.25 6.375a4.125 4.125 0 118.25 0 4.125 4.125 0 01-8.25 0zM3.25 19.125a7.125 7.125 0 0114.25 0v.003l-.001.119a.75.75 0 01-.363.63 13.067 13.067 0 01-6.761 1.873c-2.472 0-4.786-.684-6.76-1.873a.75.75 0 01-.364-.63l-.001-.122zM19.75 7.5a.75.75 0 00-1.5 0v2.25H16a.75.75 0 000 1.5h2.25v2.25a.75.75 0 001.5 0v-2.25H22a.75.75 0 000-1.5h-2.25V7.5z"
        />
    </symbol>

    <symbol id="Trash" viewBox="0 0 110.61 122.88" fill="currentColor"
        aria-hidden="true">
        <path
            d="M39.27,58.64a4.74,4.74,0,1,1,9.47,0V93.72a4.74,4.74,0,1,1-9.47,0V58.64Zm63.6-19.86L98,103a22.29,22.29,0,0,1-6.33,14.1,19.41,19.41,0,0,1-13.88,5.78h-45a19.4,19.4,0,0,1-13.86-5.78l0,0A22.31,22.31,0,0,1,12.59,103L7.74,38.78H0V25c0-3.32,1.63-4.58,4.84-4.58H27.58V10.79A10.82,10.82,0,0,1,38.37,0H72.24A10.82,10.82,0,0,1,83,10.79v9.62h23.35a6.19,6.19,0,0,1,1,.06A3.86,3.86,0,0,1,110.59,24c0,.2,0,.38,0,.57V38.78Zm-9.5.17H17.24L22,102.3a12.82,12.82,0,0,0,3.57,8.1l0,0a10,10,0,0,0,7.19,3h45a10.06,10.06,0,0,0,7.19-3,12.8,12.8,0,0,0,3.59-8.1L93.37,39ZM71,20.41V12.05H39.64v8.36ZM61.87,58.64a4.74,4.74,0,1,1,9.47,0V93.72a4.74,4.74,0,1,1-9.47,0V58.64Z"
        />
    </symbol>

    <symbol id="Pencil" viewBox="0 0 24 24" fill="currentColor" aria-hidden="true">
        <path
            d="M21.731 2.269a2.625 2.625 0 00-3.712 0l-1.157 1.157 3.712 3.712 1.157-1.157a2.625 2.625 0 000-3.712zM19.513 8.199l-3.712-3.712-12.15 12.15a5.25 5.25 0 00-1.32 2.214l-.8 2.685a.75.75 0 00.933.933l2.685-.8a5.25 5.25 0 002.214-1.32L19.513 8.2z"
        />
    </symbol>

    <symbol id="Dropdown" viewBox="0 0 24 24" fill="none" stroke="currentColor">
        <path
            stroke-linecap="round" stroke-linejoin="round" stroke-width="2"
            d="M19 9l-7 7-7-7" />
    </symbol>

    <symbol id="Finance" viewBox="0 0 88.47 122.88"
        fill="currentColor" aria-hidden="true" stroke-width="2">
        <path
            d="M11.86,68.08L7.62,92.09c-0.07,0.33-0.2,0.63-0.4,0.86c-1.51,1.95-2.46,3.62-2.74,4.97c-0.2,1,0,1.8,0.67,2.43l16.56,16.56 c1.05,1.01,2.28,1.65,3.74,1.91c1.6,0.3,3.46,0.13,5.6-0.45c0.03,0,0.08-0.02,0.12-0.02c0.81-0.22,1.88-0.48,2.89-0.73 c4.44-1.08,8.31-2.03,11.91-5.29l4.62-4.82c0.05-0.08,0.12-0.15,0.18-0.22c0.07-0.07,0.52-0.52,1.13-1.1 c3.16-3.09,7.07-6.9,4.69-10.24l-1.85-1.85c-0.9,0.86-1.85,1.71-2.76,2.53c-0.83,0.73-1.61,1.41-2.33,2.13 c-0.76,0.76-2,0.76-2.76,0c-0.76-0.77-0.76-2,0-2.76c0.71-0.72,1.6-1.5,2.51-2.31c3.13-2.76,6.72-5.92,4.79-8.68l-1.83-1.83 c-0.1-0.1-0.18-0.22-0.27-0.33c-1.05,1.08-2.21,2.11-3.34,3.11c-0.83,0.73-1.61,1.41-2.33,2.13c-0.77,0.77-2,0.77-2.76,0 c-0.77-0.76-0.77-2,0-2.76c0.71-0.71,1.6-1.5,2.51-2.31c3.13-2.76,6.72-5.92,4.79-8.68l-1.83-1.83c-0.13-0.13-0.23-0.27-0.32-0.42 l-5.37,5.37c-0.77,0.76-2,0.76-2.76,0c-0.76-0.77-0.76-2,0-2.76l10.07-10.07c2.41-2.41,2.96-4.92,2.33-6.82 c-0.23-0.7-0.62-1.31-1.1-1.8c-0.25-0.25-0.53-0.47-0.84-0.66l-0.01,0c-0.15,0.07-0.26-0.08-0.4-0.22 c-0.17-0.08-0.36-0.16-0.54-0.22c-1.67-0.55-3.84-0.16-6.04,1.69c-0.03,0.03-0.06,0.06-0.09,0.08c-0.24,0.2-0.48,0.42-0.72,0.66 L22.44,78.27c-0.76,0.76-2,0.76-2.76,0c-0.7-0.7-0.76-1.78-0.18-2.55L11.86,68.08L11.86,68.08z M25.08,70.11l0.67-0.67l13.79-13.79 c-1.43-0.66-2.76-1.59-3.94-2.77c-5.25-5.25-5.25-13.73,0-18.98c5.25-5.25,13.73-5.25,18.98,0c5.25,5.25,5.25,13.73,0,18.98 c-0.04,0.04-0.09,0.09-0.13,0.13c0.1,0.09,0.21,0.19,0.31,0.29c0.43,0.43,0.8,0.9,1.13,1.4l17.1-17.1c-2.62-2.62-2.62-6.9,0-9.53 L60.25,15.33c-2.62,2.62-6.9,2.62-9.53,0L15.28,50.77c2.62,2.62,2.62,6.9,0,9.53L25.08,70.11L25.08,70.11z M55.14,65.57 c-0.46,0.64-0.99,1.28-1.62,1.9l-2,2l-0.02-0.05c0.15,0.08,0.28,0.18,0.42,0.32l1.91,1.91c0.1,0.1,0.2,0.23,0.28,0.35 c2.15,2.94,1.81,5.57,0.35,7.97c0.27,0.1,0.52,0.25,0.71,0.45l1.91,1.91c0.1,0.1,0.2,0.23,0.28,0.35c2.31,3.18,1.73,5.95,0,8.48 c0.08,0.05,0.15,0.12,0.23,0.2l1.91,1.91c0.1,0.1,0.2,0.23,0.28,0.35c4.44,6.07-0.85,11.22-5.1,15.38l-1.1,1.1l-4.74,4.97 l-0.15,0.15c-4.34,3.94-8.65,4.99-13.62,6.2c-0.83,0.2-1.68,0.42-2.84,0.71c-0.03,0-0.05,0.02-0.08,0.02 c-2.69,0.73-5.14,0.91-7.33,0.52c-2.23-0.4-4.16-1.4-5.77-2.98L2.52,103.15c-1.68-1.61-2.24-3.61-1.78-5.97 c0.37-1.9,1.46-3.99,3.19-6.25l4.42-25.04v-0.1c0.04-0.31,0.1-0.66,0.17-1.04L0,56.23L56.23,0l32.24,32.24L55.14,65.57L55.14,65.57 z" />
    </symbol>

    <symbol id="AddCashbox" viewBox="0 0 68.65 122.88"
        fill="currentColor" aria-hidden="true" stroke-width="2">
        <path
            d="M1.63,73.25c-0.57-2.11-0.97-3.69-1.24-5.82C0.12,65.32,0,62.77,0,58.76V41.5v-8.37c0-2.22,0.85-4.24,2.22-5.7 c1.37-1.47,3.27-2.38,5.35-2.38h2.38V5.99c0-1.65,0.67-3.15,1.76-4.24C12.8,0.67,14.3,0,15.95,0h35.8h5.69l0.06,0l0.06,0 c3.65,0,5.67,0.13,7.07,1.5c1.41,1.37,1.61,3.4,1.61,7.18v5.53c0,0.99-0.8,1.8-1.8,1.8h-5.21v9.04h1.64c2.09,0,3.99,0.91,5.36,2.39 c1.38,1.47,2.23,3.5,2.23,5.72v25.68v0c0.31,3.79,0.21,6.84-0.12,9.45c-0.34,2.68-0.9,4.87-1.51,6.94 c-2.98,10.15-2.8,19.1-2.6,29.09c0.05,2.75,0.11,5.56,0.11,8.08c0,0.03,0,0.05,0,0.08c0.09,3.32-0.62,5.93-2.25,7.74 c-1.65,1.84-4.13,2.76-7.55,2.65v0H13.42c-0.03,0-0.05,0-0.08,0c-3.25,0.09-5.49-0.85-6.96-2.6c-1.46-1.74-2.05-4.18-2.04-7.1H4.34 v-19c0-4.36-0.13-7.55-0.52-10.64C3.42,80.44,2.74,77.37,1.63,73.25L1.63,73.25z M11.83,35.36h45c0.76,0,1.44,0.33,1.94,0.86l0,0 l0,0c0.46,0.49,0.75,1.17,0.75,1.9v19.84c0,0.73-0.29,1.41-0.75,1.9c-0.05,0.06-0.11,0.11-0.17,0.16c-0.48,0.44-1.1,0.7-1.78,0.7 h-45c-0.76,0-1.44-0.33-1.94-0.86c-0.47-0.5-0.76-1.17-0.76-1.9V38.12c0-0.73,0.29-1.4,0.76-1.9 C10.39,35.69,11.07,35.36,11.83,35.36L11.83,35.36z M29.33,102.11h9.99v11.03h-9.99V102.11L29.33,102.11z M13.48,67.33h9.99v11.03 h-9.99V67.33L13.48,67.33z M29.33,67.33h9.99v11.03h-9.99V67.33L29.33,67.33z M45.18,67.33h9.99v11.03h-9.99V67.33L45.18,67.33z M45.18,84.72h9.99v28.37h-9.99V84.72L45.18,84.72z M29.33,84.72h9.99v11.03h-9.99V84.72L29.33,84.72z M13.48,84.72h9.99v11.03 h-9.99V84.72L13.48,84.72z M13.48,102.11h9.99v11.03h-9.99V102.11L13.48,102.11z M55.96,38.93H12.7v18.22h43.26V38.93L55.96,38.93z M59.23,3.6v1.94v6.87h3.41V8.68c0-2.77-0.07-4.17-0.52-4.61C61.79,3.74,60.86,3.63,59.23,3.6L59.23,3.6z M17.58,14.78h34.29v3.29 H17.58V14.78L17.58,14.78z M17.49,7.24h5.02v3.29h-5.02V7.24L17.49,7.24z M27.37,7.24h24.5v3.29h-24.5V7.24L27.37,7.24z M51.75,3.59h-35.8c-0.66,0-1.26,0.27-1.69,0.71c-0.44,0.44-0.71,1.04-0.71,1.69v18.55h42.1V5.55V3.59H51.75L51.75,3.59z M3.32,67 c0.24,1.88,0.62,3.37,1.16,5.38c1.14,4.23,1.84,7.43,2.26,10.73c0.42,3.3,0.56,6.61,0.56,11.06v19H7.3v0.01 c-0.01,2.17,0.36,3.89,1.28,4.99c0.88,1.05,2.38,1.62,4.67,1.55c0.05-0.01,0.11-0.01,0.17-0.01h41.13v0.01l0.05,0 c2.55,0.09,4.31-0.5,5.37-1.67c1.05-1.17,1.5-3.02,1.43-5.47c-0.01-0.06-0.01-0.12-0.01-0.18c0-3.04-0.05-5.56-0.1-8.02 c-0.2-10.27-0.39-19.47,2.73-30.09c0.57-1.95,1.1-3.99,1.4-6.41c0.3-2.42,0.39-5.24,0.11-8.77c-0.02-0.09-0.02-0.19-0.02-0.28 V33.16c0-1.37-0.52-2.61-1.36-3.5c-0.84-0.89-1.99-1.45-3.27-1.45h-2.44H29.68H7.57c-1.27,0-2.42,0.55-3.25,1.44 c-0.84,0.89-1.35,2.13-1.35,3.49v8.37v17.26C2.97,62.67,3.08,65.09,3.32,67L3.32,67z" />
    </symbol>


</svg>